<svg width="500" height="500" viewBox="0 0 500 500" fill="none" xmlns="http://www.w3.org/2000/svg">
<path d="M95.2346 99.6335C102.549 125.219 114.517 150.377 133.504 165.534H107.08C88.7388 165.534 66.8979 173.884 48.9409 197.476C31.0201 221.021 17.0345 259.644 14.0025 320.149L13.8973 322.249H16H143.088C119.068 336.442 83.1114 380.616 80.0691 474.936L80.0025 477H82.0681H179.282H179.307L179.331 476.999C208.586 476.286 262.149 443.302 265.702 322.249H282.16H282.18L282.199 322.248C306.633 321.767 354.483 291.478 362.83 179.715H483.667H485.728L485.667 177.656C484.953 153.604 479.446 117.049 465.186 85.4832C450.936 53.9393 427.713 26.923 391.386 23.0115L391.28 23H391.172H86.7872H84.796L84.7872 24.9912C84.7079 43.0202 87.2736 71.7867 95.2346 99.6335Z" stroke="#33BEB6" stroke-width="4"/>
<path d="M268.946 298.529C324.821 293.1 340.048 224.774 340.677 191.29C273.823 191.063 134.073 190.611 109.911 190.611C53.2813 193.869 36.607 263.914 35.3485 298.529H268.946Z" fill="#33BEB6"/>
<path d="M178.339 155.317C123.219 153.145 106.293 82.0136 104.72 46.7195H375.599C440.912 48.8914 461.959 120.023 464.319 155.317H178.339Z" fill="#33BEB6"/>
<path d="M175.035 449.887C229.4 445 243.306 373.643 243.463 338.575H175.035C119.161 346.719 104.563 416.176 104.248 449.887H175.035Z" fill="#429792"/>
</svg>
